<svg xmlns="http://www.w3.org/2000/svg" xmlns:xlink="http://www.w3.org/1999/xlink" width="200" zoomAndPan="magnify" viewBox="0 0 150 299.999988" height="400" preserveAspectRatio="xMidYMid meet" version="1.0"><path fill="#000000" d="M 56.535156 76.953125 L -0.0078125 135.734375 L 11.75 147.488281 L 56.535156 99.90625 L 57.09375 179.957031 L 18.46875 299.199219 C 18.46875 299.199219 43.660156 299.824219 44.21875 298.707031 C 44.5 298.144531 72.207031 188.359375 73.328125 186.675781 L 104.679688 298.632812 L 128.75 298.632812 L 90.121094 180.515625 L 90.683594 99.902344 L 136.585938 146.367188 L 150.023438 135.171875 L 91.800781 76.949219 L 56.535156 76.949219 Z M 56.535156 76.953125 " fill-opacity="1" fill-rule="evenodd"/><path fill="#000000" d="M 73.882812 0.261719 C 21.261719 1.378906 21.820312 70.238281 72.203125 70.796875 C 126.507812 70.796875 128.183594 0.820312 73.882812 0.261719 Z M 73.882812 0.261719 " fill-opacity="1" fill-rule="evenodd"/></svg>